solid JSxCAD
facet normal -1 0 0
outer loop
vertex -9.07 -2.4 0
vertex -9.07 0 0.64
vertex -9.07 0 0
endloop
endfacet
facet normal -1 0 0
outer loop
vertex -9.07 0 0.64
vertex -9.07 -2.4 0
vertex -9.07 -2.4 0.64
endloop
endfacet
facet normal 0 1 0
outer loop
vertex -9.07 0 0
vertex -8.43 0 0.64
vertex -8.43 0 0
endloop
endfacet
facet normal 0 0.9999999999999999 0
outer loop
vertex -8.43 0 0.64
vertex -9.07 0 0
vertex -9.07 0 0.64
endloop
endfacet
facet normal 1 0 0
outer loop
vertex -8.43 -2.4 0.64
vertex -8.43 0 0
vertex -8.43 0 0.64
endloop
endfacet
facet normal 1 0 0
outer loop
vertex -8.43 0 0
vertex -8.43 -2.4 0.64
vertex -8.43 -2.4 0
endloop
endfacet
facet normal 0 -1 0
outer loop
vertex -9.07 -2.4 0.64
vertex -8.43 -2.4 0
vertex -8.43 -2.4 0.64
endloop
endfacet
facet normal 0 -0.9999999999999999 0
outer loop
vertex -8.43 -2.4 0
vertex -9.07 -2.4 0.64
vertex -9.07 -2.4 0
endloop
endfacet
facet normal 0 0 1
outer loop
vertex -9.07 0 0.64
vertex -8.43 -2.4 0.64
vertex -8.43 0 0.64
endloop
endfacet
facet normal 0 0 1
outer loop
vertex -8.43 -2.4 0.64
vertex -9.07 0 0.64
vertex -9.07 -2.4 0.64
endloop
endfacet
facet normal 0 0 -1
outer loop
vertex -9.07 -2.4 0
vertex -8.43 0 0
vertex -8.43 -2.4 0
endloop
endfacet
facet normal 0 0 -1
outer loop
vertex -8.43 0 0
vertex -9.07 -2.4 0
vertex -9.07 0 0
endloop
endfacet
facet normal -1 0 0
outer loop
vertex -6.57 -2.4 0
vertex -6.57 0 0.64
vertex -6.57 0 0
endloop
endfacet
facet normal -1 0 0
outer loop
vertex -6.57 0 0.64
vertex -6.57 -2.4 0
vertex -6.57 -2.4 0.64
endloop
endfacet
facet normal 0 1 0
outer loop
vertex -6.57 0 0
vertex -5.93 0 0.64
vertex -5.93 0 0
endloop
endfacet
facet normal 0 1 0
outer loop
vertex -5.93 0 0.64
vertex -6.57 0 0
vertex -6.57 0 0.64
endloop
endfacet
facet normal 1 0 0
outer loop
vertex -5.93 -2.4 0.64
vertex -5.93 0 0
vertex -5.93 0 0.64
endloop
endfacet
facet normal 1 0 0
outer loop
vertex -5.93 0 0
vertex -5.93 -2.4 0.64
vertex -5.93 -2.4 0
endloop
endfacet
facet normal 0 -1 0
outer loop
vertex -6.57 -2.4 0.64
vertex -5.93 -2.4 0
vertex -5.93 -2.4 0.64
endloop
endfacet
facet normal 0 -1 0
outer loop
vertex -5.93 -2.4 0
vertex -6.57 -2.4 0.64
vertex -6.57 -2.4 0
endloop
endfacet
facet normal 0 0 1
outer loop
vertex -6.57 0 0.64
vertex -5.93 -2.4 0.64
vertex -5.93 0 0.64
endloop
endfacet
facet normal 0 0 1
outer loop
vertex -5.93 -2.4 0.64
vertex -6.57 0 0.64
vertex -6.57 -2.4 0.64
endloop
endfacet
facet normal 0 0 -1
outer loop
vertex -6.57 -2.4 0
vertex -5.93 0 0
vertex -5.93 -2.4 0
endloop
endfacet
facet normal 0 0 -1
outer loop
vertex -5.93 0 0
vertex -6.57 -2.4 0
vertex -6.57 0 0
endloop
endfacet
facet normal -1 0 0
outer loop
vertex -4.07 -2.4 0
vertex -4.07 0 0.64
vertex -4.07 0 0
endloop
endfacet
facet normal -1 0 0
outer loop
vertex -4.07 0 0.64
vertex -4.07 -2.4 0
vertex -4.07 -2.4 0.64
endloop
endfacet
facet normal 0 0.9999999999999999 0
outer loop
vertex -4.07 0 0
vertex -3.43 0 0.64
vertex -3.43 0 0
endloop
endfacet
facet normal 0 1 0
outer loop
vertex -3.43 0 0.64
vertex -4.07 0 0
vertex -4.07 0 0.64
endloop
endfacet
facet normal 1 0 0
outer loop
vertex -3.43 -2.4 0
vertex -3.43 0 0.64
vertex -3.43 -2.4 0.64
endloop
endfacet
facet normal 1 0 0
outer loop
vertex -3.43 0 0.64
vertex -3.43 -2.4 0
vertex -3.43 0 0
endloop
endfacet
facet normal 0 -0.9999999999999999 0
outer loop
vertex -4.07 -2.4 0.64
vertex -3.43 -2.4 0
vertex -3.43 -2.4 0.64
endloop
endfacet
facet normal 0 -1 0
outer loop
vertex -3.43 -2.4 0
vertex -4.07 -2.4 0.64
vertex -4.07 -2.4 0
endloop
endfacet
facet normal 0 0 0.9999999999999999
outer loop
vertex -4.07 0 0.64
vertex -3.43 -2.4 0.64
vertex -3.43 0 0.64
endloop
endfacet
facet normal 0 0 0.9999999999999999
outer loop
vertex -3.43 -2.4 0.64
vertex -4.07 0 0.64
vertex -4.07 -2.4 0.64
endloop
endfacet
facet normal 0 0 -0.9999999999999999
outer loop
vertex -4.07 -2.4 0
vertex -3.43 0 0
vertex -3.43 -2.4 0
endloop
endfacet
facet normal 0 0 -0.9999999999999999
outer loop
vertex -3.43 0 0
vertex -4.07 -2.4 0
vertex -4.07 0 0
endloop
endfacet
facet normal -1 0 0
outer loop
vertex -1.57 -2.4 0
vertex -1.57 0 0.64
vertex -1.57 0 0
endloop
endfacet
facet normal -1 0 0
outer loop
vertex -1.57 0 0.64
vertex -1.57 -2.4 0
vertex -1.57 -2.4 0.64
endloop
endfacet
facet normal 0 0.9999999999999999 0
outer loop
vertex -1.57 0 0
vertex -0.93 0 0.64
vertex -0.93 0 0
endloop
endfacet
facet normal 0 1 0
outer loop
vertex -0.93 0 0.64
vertex -1.57 0 0
vertex -1.57 0 0.64
endloop
endfacet
facet normal 1 0 0
outer loop
vertex -0.93 -2.4 0
vertex -0.93 0 0.64
vertex -0.93 -2.4 0.64
endloop
endfacet
facet normal 1 0 0
outer loop
vertex -0.93 0 0.64
vertex -0.93 -2.4 0
vertex -0.93 0 0
endloop
endfacet
facet normal 0 -0.9999999999999999 0
outer loop
vertex -1.57 -2.4 0.64
vertex -0.93 -2.4 0
vertex -0.93 -2.4 0.64
endloop
endfacet
facet normal 0 -1 0
outer loop
vertex -0.93 -2.4 0
vertex -1.57 -2.4 0.64
vertex -1.57 -2.4 0
endloop
endfacet
facet normal 0 0 1
outer loop
vertex -1.57 0 0.64
vertex -0.93 -2.4 0.64
vertex -0.93 0 0.64
endloop
endfacet
facet normal 0 0 1
outer loop
vertex -0.93 -2.4 0.64
vertex -1.57 0 0.64
vertex -1.57 -2.4 0.64
endloop
endfacet
facet normal 0 0 -1
outer loop
vertex -1.57 -2.4 0
vertex -0.93 0 0
vertex -0.93 -2.4 0
endloop
endfacet
facet normal 0 0 -1
outer loop
vertex -0.93 0 0
vertex -1.57 -2.4 0
vertex -1.57 0 0
endloop
endfacet
facet normal -1 0 0
outer loop
vertex 0.93 -2.4 0
vertex 0.93 0 0.64
vertex 0.93 0 0
endloop
endfacet
facet normal -1 0 0
outer loop
vertex 0.93 0 0.64
vertex 0.93 -2.4 0
vertex 0.93 -2.4 0.64
endloop
endfacet
facet normal 0 1 0
outer loop
vertex 0.93 0 0
vertex 1.57 0 0.64
vertex 1.57 0 0
endloop
endfacet
facet normal 0 0.9999999999999999 0
outer loop
vertex 1.57 0 0.64
vertex 0.93 0 0
vertex 0.93 0 0.64
endloop
endfacet
facet normal 1 0 0
outer loop
vertex 1.57 -2.4 0
vertex 1.57 0 0.64
vertex 1.57 -2.4 0.64
endloop
endfacet
facet normal 1 0 0
outer loop
vertex 1.57 0 0.64
vertex 1.57 -2.4 0
vertex 1.57 0 0
endloop
endfacet
facet normal 0 -1 0
outer loop
vertex 0.93 -2.4 0.64
vertex 1.57 -2.4 0
vertex 1.57 -2.4 0.64
endloop
endfacet
facet normal 0 -0.9999999999999999 0
outer loop
vertex 1.57 -2.4 0
vertex 0.93 -2.4 0.64
vertex 0.93 -2.4 0
endloop
endfacet
facet normal 0 0 1
outer loop
vertex 0.93 0 0.64
vertex 1.57 -2.4 0.64
vertex 1.57 0 0.64
endloop
endfacet
facet normal 0 0 1
outer loop
vertex 1.57 -2.4 0.64
vertex 0.93 0 0.64
vertex 0.93 -2.4 0.64
endloop
endfacet
facet normal 0 0 -1
outer loop
vertex 0.93 -2.4 0
vertex 1.57 0 0
vertex 1.57 -2.4 0
endloop
endfacet
facet normal 0 0 -1
outer loop
vertex 1.57 0 0
vertex 0.93 -2.4 0
vertex 0.93 0 0
endloop
endfacet
facet normal -1 0 0
outer loop
vertex 3.43 -2.4 0
vertex 3.43 0 0.64
vertex 3.43 0 0
endloop
endfacet
facet normal -1 0 0
outer loop
vertex 3.43 0 0.64
vertex 3.43 -2.4 0
vertex 3.43 -2.4 0.64
endloop
endfacet
facet normal 0 1 0
outer loop
vertex 3.43 0 0
vertex 4.07 0 0.64
vertex 4.07 0 0
endloop
endfacet
facet normal 0 0.9999999999999999 0
outer loop
vertex 4.07 0 0.64
vertex 3.43 0 0
vertex 3.43 0 0.64
endloop
endfacet
facet normal 1 0 0
outer loop
vertex 4.07 -2.4 0.64
vertex 4.07 0 0
vertex 4.07 0 0.64
endloop
endfacet
facet normal 1 0 0
outer loop
vertex 4.07 0 0
vertex 4.07 -2.4 0.64
vertex 4.07 -2.4 0
endloop
endfacet
facet normal 0 -1 0
outer loop
vertex 3.43 -2.4 0.64
vertex 4.07 -2.4 0
vertex 4.07 -2.4 0.64
endloop
endfacet
facet normal 0 -0.9999999999999999 0
outer loop
vertex 4.07 -2.4 0
vertex 3.43 -2.4 0.64
vertex 3.43 -2.4 0
endloop
endfacet
facet normal 0 0 0.9999999999999999
outer loop
vertex 3.43 0 0.64
vertex 4.07 -2.4 0.64
vertex 4.07 0 0.64
endloop
endfacet
facet normal 0 0 0.9999999999999999
outer loop
vertex 4.07 -2.4 0.64
vertex 3.43 0 0.64
vertex 3.43 -2.4 0.64
endloop
endfacet
facet normal 0 0 -0.9999999999999999
outer loop
vertex 3.43 -2.4 0
vertex 4.07 0 0
vertex 4.07 -2.4 0
endloop
endfacet
facet normal 0 0 -0.9999999999999999
outer loop
vertex 4.07 0 0
vertex 3.43 -2.4 0
vertex 3.43 0 0
endloop
endfacet
facet normal -1 0 0
outer loop
vertex 5.93 -2.4 0
vertex 5.93 0 0.64
vertex 5.93 0 0
endloop
endfacet
facet normal -1 0 0
outer loop
vertex 5.93 0 0.64
vertex 5.93 -2.4 0
vertex 5.93 -2.4 0.64
endloop
endfacet
facet normal 0 1 0
outer loop
vertex 5.93 0 0
vertex 6.57 0 0.64
vertex 6.57 0 0
endloop
endfacet
facet normal 0 1 0
outer loop
vertex 6.57 0 0.64
vertex 5.93 0 0
vertex 5.93 0 0.64
endloop
endfacet
facet normal 1 0 0
outer loop
vertex 6.57 -2.4 0.64
vertex 6.57 0 0
vertex 6.57 0 0.64
endloop
endfacet
facet normal 1 0 0
outer loop
vertex 6.57 0 0
vertex 6.57 -2.4 0.64
vertex 6.57 -2.4 0
endloop
endfacet
facet normal 0 -1 0
outer loop
vertex 5.93 -2.4 0.64
vertex 6.57 -2.4 0
vertex 6.57 -2.4 0.64
endloop
endfacet
facet normal 0 -1 0
outer loop
vertex 6.57 -2.4 0
vertex 5.93 -2.4 0.64
vertex 5.93 -2.4 0
endloop
endfacet
facet normal 0 0 1
outer loop
vertex 5.93 0 0.64
vertex 6.57 -2.4 0.64
vertex 6.57 0 0.64
endloop
endfacet
facet normal 0 0 1
outer loop
vertex 6.57 -2.4 0.64
vertex 5.93 0 0.64
vertex 5.93 -2.4 0.64
endloop
endfacet
facet normal 0 0 -1
outer loop
vertex 5.93 -2.4 0
vertex 6.57 0 0
vertex 6.57 -2.4 0
endloop
endfacet
facet normal 0 0 -1
outer loop
vertex 6.57 0 0
vertex 5.93 -2.4 0
vertex 5.93 0 0
endloop
endfacet
facet normal -1 0 0
outer loop
vertex 8.43 -2.4 0
vertex 8.43 0 0.64
vertex 8.43 0 0
endloop
endfacet
facet normal -1 0 0
outer loop
vertex 8.43 0 0.64
vertex 8.43 -2.4 0
vertex 8.43 -2.4 0.64
endloop
endfacet
facet normal 0 0.9999999999999999 0
outer loop
vertex 8.43 0 0
vertex 9.07 0 0.64
vertex 9.07 0 0
endloop
endfacet
facet normal 0 1 0
outer loop
vertex 9.07 0 0.64
vertex 8.43 0 0
vertex 8.43 0 0.64
endloop
endfacet
facet normal 1 0 0
outer loop
vertex 9.07 -2.4 0.64
vertex 9.07 0 0
vertex 9.07 0 0.64
endloop
endfacet
facet normal 1 0 0
outer loop
vertex 9.07 0 0
vertex 9.07 -2.4 0.64
vertex 9.07 -2.4 0
endloop
endfacet
facet normal 0 -0.9999999999999999 0
outer loop
vertex 8.43 -2.4 0.64
vertex 9.07 -2.4 0
vertex 9.07 -2.4 0.64
endloop
endfacet
facet normal 0 -1 0
outer loop
vertex 9.07 -2.4 0
vertex 8.43 -2.4 0.64
vertex 8.43 -2.4 0
endloop
endfacet
facet normal 0 0 1
outer loop
vertex 8.43 0 0.64
vertex 9.07 -2.4 0.64
vertex 9.07 0 0.64
endloop
endfacet
facet normal 0 0 1
outer loop
vertex 9.07 -2.4 0.64
vertex 8.43 0 0.64
vertex 8.43 -2.4 0.64
endloop
endfacet
facet normal 0 0 -1
outer loop
vertex 8.43 -2.4 0
vertex 9.07 0 0
vertex 9.07 -2.4 0
endloop
endfacet
facet normal 0 0 -1
outer loop
vertex 9.07 0 0
vertex 8.43 -2.4 0
vertex 8.43 0 0
endloop
endfacet
facet normal 1 0 0
outer loop
vertex -10 4 0.75
vertex -10 7.8 5.75
vertex -10 4 5.75
endloop
endfacet
facet normal 1 0 0
outer loop
vertex -10 7.8 5.75
vertex -10 4 0.75
vertex -10 7.8 0.75
endloop
endfacet
facet normal -1 0 0
outer loop
vertex 10 7.8 0.75
vertex 10 4 5.75
vertex 10 7.8 5.75
endloop
endfacet
facet normal -1 0 0
outer loop
vertex 10 4 5.75
vertex 10 7.8 0.75
vertex 10 4 0.75
endloop
endfacet
facet normal 0 1 0
outer loop
vertex -10 4 0.75
vertex 10 4 5.75
vertex 10 4 0.75
endloop
endfacet
facet normal 0 1 0
outer loop
vertex 10 4 5.75
vertex -10 4 0.75
vertex -10 4 5.75
endloop
endfacet
facet normal 0 0 -1
outer loop
vertex 10 4 5.75
vertex -10 7.8 5.75
vertex 10 7.8 5.75
endloop
endfacet
facet normal 0 0 -1
outer loop
vertex -10 7.8 5.75
vertex 10 4 5.75
vertex -10 4 5.75
endloop
endfacet
facet normal 0 0 1
outer loop
vertex -10 4 0.75
vertex 10 7.8 0.75
vertex -10 7.8 0.75
endloop
endfacet
facet normal 0 0 1
outer loop
vertex 10 7.8 0.75
vertex -10 4 0.75
vertex 10 4 0.75
endloop
endfacet
facet normal -1 0 0
outer loop
vertex -11 7.8 5.75
vertex -11 0 6.3
vertex -11 7.8 6.3
endloop
endfacet
facet normal -1 -4.5547611266673075e-17 0
outer loop
vertex -11 7.8 0.75
vertex -11 0 6.3
vertex -11 7.8 5.75
endloop
endfacet
facet normal -1 0 0
outer loop
vertex -11 7.8 0
vertex -11 0 6.3
vertex -11 7.8 0.75
endloop
endfacet
facet normal -1 0 0
outer loop
vertex -11 0 6.3
vertex -11 7.8 0
vertex -11 0 0
endloop
endfacet
facet normal 0 1 0
outer loop
vertex 11 7.8 0
vertex 10 7.8 0.75
vertex 11 7.8 0.75
endloop
endfacet
facet normal 0 1 -3.789561257387201e-15
outer loop
vertex 11 7.8 0
vertex -10 7.8 0.75
vertex 10 7.8 0.75
endloop
endfacet
facet normal 0 1 0
outer loop
vertex -11 7.8 0
vertex -10 7.8 0.75
vertex 11 7.8 0
endloop
endfacet
facet normal 0 1 0
outer loop
vertex -10 7.8 0.75
vertex -11 7.8 0
vertex -11 7.8 0.75
endloop
endfacet
facet normal 0 1 0
outer loop
vertex 10 7.8 5.75
vertex 11 7.8 6.3
vertex 11 7.8 5.75
endloop
endfacet
facet normal 0 1 3.068252722600434e-15
outer loop
vertex -10 7.8 5.75
vertex 11 7.8 6.3
vertex 10 7.8 5.75
endloop
endfacet
facet normal 0 1 0
outer loop
vertex -11 7.8 5.75
vertex 11 7.8 6.3
vertex -10 7.8 5.75
endloop
endfacet
facet normal 0 1 0
outer loop
vertex 11 7.8 6.3
vertex -11 7.8 5.75
vertex -11 7.8 6.3
endloop
endfacet
facet normal 0 1 0
outer loop
vertex 10 7.8 0.75
vertex 11 7.8 5.75
vertex 11 7.8 0.75
endloop
endfacet
facet normal 0 1 0
outer loop
vertex 11 7.8 5.75
vertex 10 7.8 0.75
vertex 10 7.8 5.75
endloop
endfacet
facet normal 0 1 0
outer loop
vertex -11 7.8 0.75
vertex -10 7.8 5.75
vertex -10 7.8 0.75
endloop
endfacet
facet normal 0 1 0
outer loop
vertex -10 7.8 5.75
vertex -11 7.8 0.75
vertex -11 7.8 5.75
endloop
endfacet
facet normal 0 -1 0
outer loop
vertex 11 0 6.3
vertex 9.07 0 0
vertex 11 0 0
endloop
endfacet
facet normal 0 -1 0
outer loop
vertex 11 0 6.3
vertex 8.43 0 0
vertex 9.07 0 0
endloop
endfacet
facet normal 0 -1 0
outer loop
vertex 11 0 6.3
vertex 6.57 0 0
vertex 8.43 0 0
endloop
endfacet
facet normal 0 -1 0
outer loop
vertex 11 0 6.3
vertex 5.93 0 0
vertex 6.57 0 0
endloop
endfacet
facet normal 0 -1 0
outer loop
vertex 11 0 6.3
vertex 4.07 0 0
vertex 5.93 0 0
endloop
endfacet
facet normal 0 -1 0
outer loop
vertex 11 0 6.3
vertex 3.43 0 0
vertex 4.07 0 0
endloop
endfacet
facet normal 0 -1 0
outer loop
vertex 11 0 6.3
vertex 1.57 0 0
vertex 3.43 0 0
endloop
endfacet
facet normal 0 -1 0
outer loop
vertex 11 0 6.3
vertex 0.93 0 0
vertex 1.57 0 0
endloop
endfacet
facet normal 0 -1 0
outer loop
vertex 11 0 6.3
vertex -0.93 0 0
vertex 0.93 0 0
endloop
endfacet
facet normal 0 -1 0
outer loop
vertex 11 0 6.3
vertex -1.57 0 0
vertex -0.93 0 0
endloop
endfacet
facet normal 0 -1 0
outer loop
vertex 11 0 6.3
vertex -3.43 0 0
vertex -1.57 0 0
endloop
endfacet
facet normal 0 -1 0
outer loop
vertex 11 0 6.3
vertex -4.07 0 0
vertex -3.43 0 0
endloop
endfacet
facet normal 0 -1 0
outer loop
vertex 11 0 6.3
vertex -5.93 0 0
vertex -4.07 0 0
endloop
endfacet
facet normal 0 -1 0
outer loop
vertex 11 0 6.3
vertex -6.57 0 0
vertex -5.93 0 0
endloop
endfacet
facet normal 0 -1 0
outer loop
vertex 11 0 6.3
vertex -8.43 0 0
vertex -6.57 0 0
endloop
endfacet
facet normal 0 -1 0
outer loop
vertex 11 0 6.3
vertex -9.07 0 0
vertex -8.43 0 0
endloop
endfacet
facet normal 0 -1 0
outer loop
vertex -11 0 6.3
vertex -9.07 0 0
vertex 11 0 6.3
endloop
endfacet
facet normal 0 -1 0
outer loop
vertex -9.07 0 0
vertex -11 0 6.3
vertex -11 0 0
endloop
endfacet
facet normal 0 0 1
outer loop
vertex -11 7.8 6.3
vertex 11 0 6.3
vertex 11 7.8 6.3
endloop
endfacet
facet normal 0 0 1
outer loop
vertex 11 0 6.3
vertex -11 7.8 6.3
vertex -11 0 6.3
endloop
endfacet
facet normal 0 0 -1
outer loop
vertex 9.07 0 0
vertex 11 7.8 0
vertex 11 0 0
endloop
endfacet
facet normal 0 0 -1
outer loop
vertex 8.43 0 0
vertex 11 7.8 0
vertex 9.07 0 0
endloop
endfacet
facet normal 0 0 -1
outer loop
vertex 6.57 0 0
vertex 11 7.8 0
vertex 8.43 0 0
endloop
endfacet
facet normal 0 0 -1
outer loop
vertex 5.93 0 0
vertex 11 7.8 0
vertex 6.57 0 0
endloop
endfacet
facet normal 0 0 -1
outer loop
vertex 4.07 0 0
vertex 11 7.8 0
vertex 5.93 0 0
endloop
endfacet
facet normal 0 0 -1
outer loop
vertex 3.43 0 0
vertex 11 7.8 0
vertex 4.07 0 0
endloop
endfacet
facet normal 0 0 -1
outer loop
vertex 1.57 0 0
vertex 11 7.8 0
vertex 3.43 0 0
endloop
endfacet
facet normal 0 0 -1
outer loop
vertex 0.93 0 0
vertex 11 7.8 0
vertex 1.57 0 0
endloop
endfacet
facet normal 0 0 -1
outer loop
vertex -0.93 0 0
vertex 11 7.8 0
vertex 0.93 0 0
endloop
endfacet
facet normal 0 0 -1
outer loop
vertex -1.57 0 0
vertex 11 7.8 0
vertex -0.93 0 0
endloop
endfacet
facet normal 0 0 -1
outer loop
vertex -3.43 0 0
vertex 11 7.8 0
vertex -1.57 0 0
endloop
endfacet
facet normal 0 0 -1
outer loop
vertex -4.07 0 0
vertex 11 7.8 0
vertex -3.43 0 0
endloop
endfacet
facet normal 0 0 -1
outer loop
vertex -5.93 0 0
vertex 11 7.8 0
vertex -4.07 0 0
endloop
endfacet
facet normal 0 0 -1
outer loop
vertex -6.57 0 0
vertex 11 7.8 0
vertex -5.93 0 0
endloop
endfacet
facet normal 0 0 -1
outer loop
vertex -8.43 0 0
vertex 11 7.8 0
vertex -6.57 0 0
endloop
endfacet
facet normal 0 0 -1
outer loop
vertex -9.07 0 0
vertex 11 7.8 0
vertex -8.43 0 0
endloop
endfacet
facet normal 0 0 -1
outer loop
vertex -9.07 0 0
vertex -11 7.8 0
vertex 11 7.8 0
endloop
endfacet
facet normal 0 0 -1
outer loop
vertex -11 7.8 0
vertex -9.07 0 0
vertex -11 0 0
endloop
endfacet
facet normal 1 0 0
outer loop
vertex 11 0 6.3
vertex 11 7.8 5.75
vertex 11 7.8 6.3
endloop
endfacet
facet normal 1 0 0
outer loop
vertex 11 0 6.3
vertex 11 7.8 0.75
vertex 11 7.8 5.75
endloop
endfacet
facet normal 1 0 0
outer loop
vertex 11 0 0
vertex 11 7.8 0.75
vertex 11 0 6.3
endloop
endfacet
facet normal 1 0 0
outer loop
vertex 11 7.8 0.75
vertex 11 0 0
vertex 11 7.8 0
endloop
endfacet
endsolid JSxCAD
